# xmcd
#
# Track frame offsets:
#	150
#	17789
#	42341
#	58972
#	84318
#	107829
#	130379
#	152734
#	170691
#	189697
#	220137
#	248289
#	268065
#	292183
#
# Disc length: 4206
#
# Revision: 1
# Processed by: cddbd v1.5.1PL0 Copyright (c) Steve Scherf et al.
# Submitted via: CDex 1.50
# Normalized: r0:DSETVAR1
#
DISCID=cf106c0e
DTITLE=Various Artist - Salsa De Oro Vol. 2
DYEAR=1900
DGENRE=Salsa
TTITLE0=Oscar D'Leon - Sigue Tu Camino
TTITLE1=Hector Lavoe - El Dia De Mi Suerte
TTITLE2=Justo Betancour - Pa' Bravo Yo
TTITLE3=Ismael Miranda - Asi Se Compone Un Son
TTITLE4=Grupo Niche - Las Mujeres Estan De Moda
TTITLE5=El Gran Combo de Puerto Rico - Carbonerito
TTITLE6=Hermanos Moreno - Quimbombo
TTITLE7=Dimension Latina - El Mejoral
TTITLE8=Omar D.J. - Barrenquillero Arrebatao
TTITLE9=Hector Lavoe - Periodico de Ayer
TTITLE10=Latin Brothers - Patrona De Los Reclusos
TTITLE11=Joe Arroyo - La Noche
TTITLE12=Oscar D'Leon - Melao de Caña
TTITLE13=Willy Colon - Idilio
EXTD=
EXTT0=
EXTT1=
EXTT2=
EXTT3=
EXTT4=
EXTT5=
EXTT6=
EXTT7=
EXTT8=
EXTT9=
EXTT10=
EXTT11=
EXTT12=
EXTT13=
PLAYORDER=
